<svg width="496mm" height="643mm" viewBox="0 0 496 643" xmlns="http://www.w3.org/2000/svg" version="1.1" preserveAspectRatio="xMidYMid meet"><g id="svgGroup" stroke-linecap="round" fill-rule="evenodd" font-size="9pt" stroke="#000" stroke-width="0.25mm" fill="none" style="stroke:#000;stroke-width:0.25mm;fill:none"><path d="M 0 323 L 0 370.5 L 3 370.5 L 3 415.5 L 0 415.5 L 0 460.5 L 3 460.5 L 3 505.5 L 0 505.5 L 0 550.5 L 3 550.5 L 3 595.5 L 0 595.5 L 0 643 L 50 643 L 50 640 L 95 640 L 95 643 L 140 643 L 145 643 L 145 595.5 L 142 595.5 L 142 550.5 L 145 550.5 L 145 505.5 L 142 505.5 L 142 460.5 L 145 460.5 L 145 415.5 L 142 415.5 L 142 370.5 L 145 370.5 L 145 323 L 95 323 L 95 326 L 50 326 L 50 323 L 5 323 L 0 323 Z" id="front_outsideCutPath" stroke="#FF0000" stroke-width="0.1" style="stroke:#FF0000;stroke-width:0.1" vector-effect="non-scaling-stroke"/><path d="M 151 323 L 151 370.5 L 148 370.5 L 148 415.5 L 151 415.5 L 151 460.5 L 148 460.5 L 148 505.5 L 151 505.5 L 151 550.5 L 148 550.5 L 148 595.5 L 151 595.5 L 151 643 L 180.5 643 L 180.5 640 L 225.5 640 L 225.5 643 L 270.5 643 L 270.5 640 L 315.5 640 L 315.5 643 L 345 643 L 345 595.5 L 348 595.5 L 348 550.5 L 345 550.5 L 345 505.5 L 348 505.5 L 348 460.5 L 345 460.5 L 345 415.5 L 348 415.5 L 348 370.5 L 345 370.5 L 345 323 L 315.5 323 L 315.5 326 L 270.5 326 L 270.5 323 L 225.5 323 L 225.5 326 L 180.5 326 L 180.5 323 L 151 323 Z" id="left_outsideCutPath" stroke="#FF0000" stroke-width="0.1" style="stroke:#FF0000;stroke-width:0.1" vector-effect="non-scaling-stroke"/><path d="M 354 446 L 354 475.5 L 351 475.5 L 351 520.5 L 354 520.5 L 354 565.5 L 351 565.5 L 351 610.5 L 354 610.5 L 354 640 L 401 640 L 401 643 L 446 643 L 446 640 L 491 640 L 493 640 L 493 610.5 L 496 610.5 L 496 565.5 L 493 565.5 L 493 520.5 L 496 520.5 L 496 475.5 L 493 475.5 L 493 446 L 446 446 L 446 443 L 401 443 L 401 446 L 356 446 L 354 446 Z" id="top_outsideCutPath" stroke="#FF0000" stroke-width="0.1" style="stroke:#FF0000;stroke-width:0.1" vector-effect="non-scaling-stroke"/><path d="M 0 0 L 0 47.5 L 3 47.5 L 3 92.5 L 0 92.5 L 0 137.5 L 3 137.5 L 3 182.5 L 0 182.5 L 0 227.5 L 3 227.5 L 3 272.5 L 0 272.5 L 0 320 L 50 320 L 50 317 L 95 317 L 95 320 L 140 320 L 145 320 L 145 272.5 L 142 272.5 L 142 227.5 L 145 227.5 L 145 182.5 L 142 182.5 L 142 137.5 L 145 137.5 L 145 92.5 L 142 92.5 L 142 47.5 L 145 47.5 L 145 0 L 95 0 L 95 3 L 50 3 L 50 0 L 5 0 L 0 0 Z" id="back_outsideCutPath" stroke="#FF0000" stroke-width="0.1" style="stroke:#FF0000;stroke-width:0.1" vector-effect="non-scaling-stroke"/><path d="M 151 0 L 151 47.5 L 148 47.5 L 148 92.5 L 151 92.5 L 151 137.5 L 148 137.5 L 148 182.5 L 151 182.5 L 151 227.5 L 148 227.5 L 148 272.5 L 151 272.5 L 151 320 L 180.5 320 L 180.5 317 L 225.5 317 L 225.5 320 L 270.5 320 L 270.5 317 L 315.5 317 L 315.5 320 L 345 320 L 345 272.5 L 348 272.5 L 348 227.5 L 345 227.5 L 345 182.5 L 348 182.5 L 348 137.5 L 345 137.5 L 345 92.5 L 348 92.5 L 348 47.5 L 345 47.5 L 345 0 L 315.5 0 L 315.5 3 L 270.5 3 L 270.5 0 L 225.5 0 L 225.5 3 L 180.5 3 L 180.5 0 L 151 0 Z" id="right_outsideCutPath" stroke="#FF0000" stroke-width="0.1" style="stroke:#FF0000;stroke-width:0.1" vector-effect="non-scaling-stroke"/><path d="M 354 243 L 354 272.5 L 351 272.5 L 351 317.5 L 354 317.5 L 354 362.5 L 351 362.5 L 351 407.5 L 354 407.5 L 354 437 L 401 437 L 401 440 L 446 440 L 446 437 L 491 437 L 493 437 L 493 407.5 L 496 407.5 L 496 362.5 L 493 362.5 L 493 317.5 L 496 317.5 L 496 272.5 L 493 272.5 L 493 243 L 446 243 L 446 240 L 401 240 L 401 243 L 356 243 L 354 243 Z" id="bottom_outsideCutPath" stroke="#FF0000" stroke-width="0.1" style="stroke:#FF0000;stroke-width:0.1" vector-effect="non-scaling-stroke"/></g></svg>